<svg width="474.024" height="95.313" viewBox="0 0 474.024 95.313" xmlns="http://www.w3.org/2000/svg"><g id="svgGroup" stroke-linecap="round" fill-rule="evenodd" font-size="9pt" stroke="#fcc200" stroke-width="0.25mm" fill="#ffc53d" style="stroke:#fcc200;stroke-width:0.25mm;fill:#ffc53d"><path d="M 381.445 75.391 L 350.977 75.391 L 350.977 62.11 L 381.445 62.11 A 3.192 3.192 0 0 0 383.758 61.163 A 3.916 3.916 0 0 0 383.789 61.133 A 3.193 3.193 0 0 0 384.765 58.832 A 3.803 3.803 0 0 0 384.766 58.789 Q 384.766 57.948 384.421 57.452 A 1.501 1.501 0 0 0 383.789 56.934 A 4.736 4.736 0 0 0 382.715 56.604 Q 382.129 56.494 381.445 56.494 L 367.578 56.494 Q 364.111 56.494 361.084 55.176 Q 358.057 53.858 355.811 51.587 A 16.897 16.897 0 0 1 352.271 46.289 A 16.347 16.347 0 0 1 350.977 39.802 A 19.099 19.099 0 0 1 350.977 39.795 A 16.356 16.356 0 0 1 352.25 33.348 A 15.937 15.937 0 0 1 352.271 33.301 Q 353.564 30.274 355.811 28.028 Q 358.057 25.781 361.084 24.487 A 16.347 16.347 0 0 1 367.571 23.194 A 11.461 11.461 0 0 1 367.578 23.194 L 394.58 23.194 L 394.58 36.475 L 367.578 36.475 A 3.192 3.192 0 0 0 365.265 37.421 A 3.916 3.916 0 0 0 365.234 37.451 A 3.193 3.193 0 0 0 364.258 39.752 A 3.803 3.803 0 0 0 364.258 39.795 A 3.335 3.335 0 0 0 365.234 42.212 A 3.284 3.284 0 0 0 366.419 43.008 A 3.227 3.227 0 0 0 367.578 43.213 L 381.445 43.213 A 18.111 18.111 0 0 1 387.511 44.222 A 17.287 17.287 0 0 1 387.891 44.361 Q 390.918 45.508 393.164 47.559 A 15.105 15.105 0 0 1 396.729 52.49 A 14.715 14.715 0 0 1 398.026 57.943 A 17.223 17.223 0 0 1 398.047 58.789 A 16.041 16.041 0 0 1 397.001 64.597 A 15.369 15.369 0 0 1 396.729 65.259 A 17.332 17.332 0 0 1 393.164 70.532 A 16.405 16.405 0 0 1 387.891 74.097 A 16.226 16.226 0 0 1 381.445 75.391 Z M 315.771 75.391 L 311.377 69.287 A 35.969 35.969 0 0 1 307.935 72.046 A 25.929 25.929 0 0 1 304.102 74.292 A 23.677 23.677 0 0 1 299.976 75.806 Q 297.852 76.367 295.654 76.367 A 24.207 24.207 0 0 1 287.106 74.865 A 23.204 23.204 0 0 1 286.572 74.658 A 22.427 22.427 0 0 1 279.126 69.8 A 21.958 21.958 0 0 1 274.702 63.512 A 25.76 25.76 0 0 1 274.097 62.134 Q 272.266 57.617 272.266 52.002 L 272.266 23.096 L 285.547 23.096 L 285.547 52.002 Q 285.547 54.639 286.353 56.714 A 11.241 11.241 0 0 0 287.472 58.893 A 9.371 9.371 0 0 0 288.525 60.205 A 9.088 9.088 0 0 0 291.724 62.354 Q 293.555 63.086 295.654 63.086 A 8.297 8.297 0 0 0 299.536 62.134 A 10.893 10.893 0 0 0 302.734 59.619 A 12.06 12.06 0 0 0 304.883 56.079 A 11.002 11.002 0 0 0 305.664 52.002 L 305.664 23.096 L 318.994 23.096 L 318.994 75.391 L 315.771 75.391 Z M 116.699 45.508 L 116.699 75.391 L 103.369 75.391 L 103.369 23.096 L 106.592 23.096 L 110.986 28.174 A 23.349 23.349 0 0 1 118.286 23.657 A 23.286 23.286 0 0 1 126.807 22.07 A 22.577 22.577 0 0 1 135.84 23.902 A 23.387 23.387 0 0 1 143.262 28.931 A 23.808 23.808 0 0 1 148.267 36.402 A 22.872 22.872 0 0 1 150.098 45.508 L 150.098 75.391 L 136.768 75.391 L 136.768 45.508 A 9.788 9.788 0 0 0 135.986 41.626 A 10.055 10.055 0 0 0 133.838 38.428 A 10.131 10.131 0 0 0 130.664 36.279 Q 128.857 35.498 126.807 35.498 Q 124.707 35.498 122.852 36.279 A 9.984 9.984 0 0 0 119.629 38.428 A 10.055 10.055 0 0 0 117.48 41.626 A 9.788 9.788 0 0 0 116.699 45.508 Z M 225.488 71.875 L 225.488 95.313 L 212.061 95.313 L 212.061 23.096 L 215.283 23.096 L 220.605 29.395 A 35.375 35.375 0 0 1 224.427 26.267 A 38.674 38.674 0 0 1 224.561 26.172 Q 226.709 24.658 229.028 23.56 A 26.498 26.498 0 0 1 233.838 21.826 Q 236.328 21.192 238.867 21.192 A 27.256 27.256 0 0 1 249.243 23.169 A 25.639 25.639 0 0 1 257.739 28.76 A 25.78 25.78 0 0 1 262.999 36.377 A 29.917 29.917 0 0 1 263.477 37.476 A 27.985 27.985 0 0 1 265.41 45.378 A 34.098 34.098 0 0 1 265.576 48.779 A 34.053 34.053 0 0 1 264.984 55.262 A 27.237 27.237 0 0 1 263.477 60.376 A 26.854 26.854 0 0 1 259.875 66.705 A 24.015 24.015 0 0 1 257.739 69.116 A 24.895 24.895 0 0 1 249.243 74.61 A 28.088 28.088 0 0 1 239.211 76.512 A 31.798 31.798 0 0 1 238.867 76.514 Q 237.109 76.514 235.376 76.123 A 23.616 23.616 0 0 1 231.958 75.073 A 37.66 37.66 0 0 1 228.638 73.584 A 63.479 63.479 0 0 1 225.488 71.875 Z M 73.291 33.496 L 63.525 43.311 A 13.213 13.213 0 0 0 61.523 39.624 A 13.603 13.603 0 0 0 59.059 37.154 A 12.613 12.613 0 0 0 58.667 36.865 Q 57.08 35.742 55.225 35.156 A 12.574 12.574 0 0 0 51.416 34.57 A 12.077 12.077 0 0 0 46.265 35.694 A 12.622 12.622 0 0 0 42.065 38.843 Q 40.283 40.869 39.258 43.653 A 16.641 16.641 0 0 0 38.333 47.756 A 20.466 20.466 0 0 0 38.232 49.805 Q 38.232 52.539 39.258 54.932 Q 40.283 57.324 42.065 59.131 Q 43.848 60.938 46.265 61.963 Q 48.682 62.988 51.416 62.988 Q 53.369 62.988 55.176 62.451 Q 56.982 61.914 58.569 60.913 Q 60.156 59.912 61.401 58.472 A 12.83 12.83 0 0 0 63.428 55.274 L 73.193 65.088 Q 71.338 67.725 68.921 69.824 A 26.958 26.958 0 0 1 63.696 73.389 A 26.109 26.109 0 0 1 57.788 75.611 A 26.774 26.774 0 0 1 51.416 76.367 A 26.136 26.136 0 0 1 41.04 74.292 A 26.95 26.95 0 0 1 32.544 68.604 A 26.868 26.868 0 0 1 26.807 60.156 Q 24.707 55.322 24.707 49.805 A 30.358 30.358 0 0 1 26.093 40.561 A 28.301 28.301 0 0 1 26.807 38.574 A 29.167 29.167 0 0 1 31.875 30.208 A 27.703 27.703 0 0 1 32.544 29.468 Q 36.182 25.586 41.04 23.34 Q 45.898 21.094 51.416 21.094 A 25.089 25.089 0 0 1 57.837 21.924 A 25.926 25.926 0 0 1 63.843 24.341 A 25.911 25.911 0 0 1 69.116 28.223 A 24.149 24.149 0 0 1 73.291 33.496 Z M 205.371 32.471 L 180.371 62.598 Q 181.152 62.842 181.934 62.915 A 16.731 16.731 0 0 0 183.496 62.988 Q 185.449 62.988 187.256 62.451 Q 189.063 61.914 190.649 60.913 Q 192.236 59.912 193.481 58.472 A 12.83 12.83 0 0 0 195.508 55.274 L 205.273 65.088 Q 203.418 67.725 201.001 69.824 A 26.958 26.958 0 0 1 195.776 73.389 A 26.109 26.109 0 0 1 189.868 75.611 A 26.774 26.774 0 0 1 183.496 76.367 A 26.405 26.405 0 0 1 173.12 74.317 A 26.219 26.219 0 0 1 164.624 68.604 A 26.698 26.698 0 0 1 159.053 60.281 A 30.424 30.424 0 0 1 158.887 59.888 Q 156.787 54.834 156.787 48.779 A 31.875 31.875 0 0 1 157.527 41.794 A 27.036 27.036 0 0 1 158.887 37.451 A 26.965 26.965 0 0 1 162.699 30.863 A 24.466 24.466 0 0 1 164.624 28.711 A 25.957 25.957 0 0 1 173.12 23.096 A 26.965 26.965 0 0 1 183.496 21.094 A 26.273 26.273 0 0 1 189.893 21.875 A 26.861 26.861 0 0 1 195.825 24.121 Q 198.633 25.586 201.074 27.71 Q 203.516 29.834 205.371 32.471 Z M 450.928 32.471 L 425.928 62.598 Q 426.709 62.842 427.49 62.915 A 16.731 16.731 0 0 0 429.053 62.988 Q 431.006 62.988 432.813 62.451 Q 434.619 61.914 436.206 60.913 Q 437.793 59.912 439.038 58.472 A 12.83 12.83 0 0 0 441.064 55.274 L 450.83 65.088 Q 448.975 67.725 446.558 69.824 A 26.958 26.958 0 0 1 441.333 73.389 A 26.109 26.109 0 0 1 435.425 75.611 A 26.774 26.774 0 0 1 429.053 76.367 A 26.405 26.405 0 0 1 418.677 74.317 A 26.219 26.219 0 0 1 410.181 68.604 A 26.698 26.698 0 0 1 404.61 60.281 A 30.424 30.424 0 0 1 404.443 59.888 Q 402.344 54.834 402.344 48.779 A 31.875 31.875 0 0 1 403.084 41.794 A 27.036 27.036 0 0 1 404.443 37.451 A 26.965 26.965 0 0 1 408.256 30.863 A 24.466 24.466 0 0 1 410.181 28.711 A 25.957 25.957 0 0 1 418.677 23.096 A 26.965 26.965 0 0 1 429.053 21.094 A 26.273 26.273 0 0 1 435.449 21.875 A 26.861 26.861 0 0 1 441.382 24.121 Q 444.189 25.586 446.631 27.71 Q 449.072 29.834 450.928 32.471 Z M 342.578 2.295 L 342.578 75.391 L 329.15 75.391 L 329.15 2.295 L 342.578 2.295 Z M 93.213 23.096 L 93.213 75.391 L 79.785 75.391 L 79.785 23.096 L 93.213 23.096 Z M 252.197 48.779 A 18.019 18.019 0 0 0 251.91 45.491 A 14.193 14.193 0 0 0 251.147 42.822 A 14.011 14.011 0 0 0 249.492 39.775 A 12.211 12.211 0 0 0 248.291 38.355 Q 246.484 36.524 244.043 35.547 A 13.806 13.806 0 0 0 238.867 34.57 Q 236.133 34.57 233.716 35.547 Q 231.299 36.524 229.492 38.355 A 12.802 12.802 0 0 0 227.131 41.707 A 15.274 15.274 0 0 0 226.636 42.822 A 14.637 14.637 0 0 0 225.734 46.385 A 18.783 18.783 0 0 0 225.586 48.779 A 16.694 16.694 0 0 0 225.976 52.448 A 14.194 14.194 0 0 0 226.636 54.59 A 14.208 14.208 0 0 0 228.34 57.714 A 12.528 12.528 0 0 0 229.492 59.082 Q 231.299 60.938 233.716 61.963 Q 236.133 62.988 238.867 62.988 Q 241.602 62.988 244.043 61.963 A 12.756 12.756 0 0 0 248.291 59.082 A 13.152 13.152 0 0 0 250.727 55.551 A 15.559 15.559 0 0 0 251.147 54.59 A 14.894 14.894 0 0 0 252.127 50.38 A 18.02 18.02 0 0 0 252.197 48.779 Z M 22.51 18.994 L 17.09 26.27 L 0 15.674 L 8.105 5.469 L 22.51 18.994 Z M 171.68 55.713 L 187.207 35.108 A 7.925 7.925 0 0 0 185.829 34.732 A 7.034 7.034 0 0 0 185.376 34.668 A 17.227 17.227 0 0 0 183.769 34.572 A 19.225 19.225 0 0 0 183.496 34.57 A 13.329 13.329 0 0 0 178.345 35.571 Q 175.928 36.572 174.146 38.428 A 13.143 13.143 0 0 0 171.713 42.02 A 15.457 15.457 0 0 0 171.338 42.896 A 14.668 14.668 0 0 0 170.457 46.419 A 18.714 18.714 0 0 0 170.313 48.779 A 17.57 17.57 0 0 0 170.329 49.509 Q 170.345 49.892 170.376 50.317 A 29.429 29.429 0 0 0 170.386 50.44 A 19.186 19.186 0 0 0 170.63 52.32 A 20.232 20.232 0 0 0 171.015 54.04 A 18.559 18.559 0 0 0 171.045 54.151 A 7.52 7.52 0 0 0 171.366 55.078 A 6.029 6.029 0 0 0 171.68 55.713 Z M 417.236 55.713 L 432.764 35.108 A 7.925 7.925 0 0 0 431.386 34.732 A 7.034 7.034 0 0 0 430.933 34.668 A 17.227 17.227 0 0 0 429.326 34.572 A 19.225 19.225 0 0 0 429.053 34.57 A 13.329 13.329 0 0 0 423.901 35.571 Q 421.484 36.572 419.702 38.428 A 13.143 13.143 0 0 0 417.269 42.02 A 15.457 15.457 0 0 0 416.895 42.896 A 14.668 14.668 0 0 0 416.013 46.419 A 18.714 18.714 0 0 0 415.869 48.779 A 17.57 17.57 0 0 0 415.885 49.509 Q 415.901 49.892 415.933 50.317 A 29.429 29.429 0 0 0 415.942 50.44 A 19.186 19.186 0 0 0 416.187 52.32 A 20.232 20.232 0 0 0 416.571 54.04 A 18.559 18.559 0 0 0 416.602 54.151 A 7.52 7.52 0 0 0 416.923 55.078 A 6.029 6.029 0 0 0 417.236 55.713 Z M 94.886 12.151 A 8.556 8.556 0 0 0 95.508 8.887 Q 95.508 7.08 94.8 5.445 A 8.83 8.83 0 0 0 92.871 2.612 A 9.337 9.337 0 0 0 90.015 0.708 Q 88.379 0 86.523 0 Q 84.668 0 83.032 0.708 Q 81.396 1.416 80.2 2.612 A 8.726 8.726 0 0 0 80.163 2.65 A 9.042 9.042 0 0 0 78.296 5.445 Q 77.588 7.08 77.588 8.887 Q 77.588 10.742 78.296 12.354 A 9.111 9.111 0 0 0 80.2 15.161 A 8.726 8.726 0 0 0 80.238 15.199 A 9.042 9.042 0 0 0 83.032 17.066 Q 84.668 17.774 86.523 17.774 Q 88.379 17.774 90.015 17.066 A 9.337 9.337 0 0 0 92.871 15.161 A 8.904 8.904 0 0 0 94.8 12.354 A 8.276 8.276 0 0 0 94.886 12.151 Z M 474.023 70.41 Q 474.023 72.168 473.389 73.706 A 8.073 8.073 0 0 1 471.631 76.367 A 8.472 8.472 0 0 1 468.994 78.15 A 8.047 8.047 0 0 1 465.941 78.806 A 9.256 9.256 0 0 1 465.723 78.809 A 8.157 8.157 0 0 1 462.476 78.15 A 8.696 8.696 0 0 1 459.79 76.367 Q 458.643 75.244 457.983 73.706 A 8.278 8.278 0 0 1 457.324 70.41 A 7.983 7.983 0 0 1 457.983 67.188 A 8.269 8.269 0 0 1 459.79 64.551 A 8.696 8.696 0 0 1 462.476 62.769 A 8.157 8.157 0 0 1 465.723 62.11 A 8.241 8.241 0 0 1 468.415 62.544 A 7.737 7.737 0 0 1 468.994 62.769 A 8.472 8.472 0 0 1 471.631 64.551 Q 472.754 65.674 473.389 67.188 Q 474.023 68.701 474.023 70.41 Z" vector-effect="non-scaling-stroke"/></g></svg>